REM DIRINDEX 1\2,1\3,1\4,1\5
REM DIRNAME folder01,folder02,folder03,folder04,folder05
TITLE ""
FILE "1800_071.mp3" MP3
  TRACK 01 AUDIO
    TITLE "2:cjc044_1789"
    INDEX 01 00:00:00
  TRACK 02 AUDIO
    TITLE "0:"
    INDEX 01 00:01:32
  TRACK 03 AUDIO
    TITLE "3:cjc044_1790"
    INDEX 01 00:02:22
  TRACK 04 AUDIO
    TITLE "0:"
    INDEX 01 00:03:68
  TRACK 05 AUDIO
    TITLE "4:cjc044_1791"
    INDEX 01 00:04:54
  TRACK 06 AUDIO
    TITLE "0:"
    INDEX 01 00:06:20
  TRACK 07 AUDIO
    TITLE "5:cjc044_1792"
    INDEX 01 00:06:71
  TRACK 08 AUDIO
    TITLE "0:"
    INDEX 01 00:09:71
  TRACK 09 AUDIO
    TITLE "2:cjc044_1793"
    INDEX 01 00:11:60
  TRACK 10 AUDIO
    TITLE "0:"
    INDEX 01 00:13:02
  TRACK 11 AUDIO
    TITLE "3:cjc044_1794"
    INDEX 01 00:13:61
  TRACK 12 AUDIO
    TITLE "0:"
    INDEX 01 00:15:23
  TRACK 13 AUDIO
    TITLE "4:cjc044_1795"
    INDEX 01 00:16:04
  TRACK 14 AUDIO
    TITLE "0:"
    INDEX 01 00:17:23
  TRACK 15 AUDIO
    TITLE "5:cjc044_1796"
    INDEX 01 00:17:70
  TRACK 16 AUDIO
    TITLE "0:"
    INDEX 01 00:20:43
  TRACK 17 AUDIO
    TITLE "2:cjc044_1797"
    INDEX 01 00:22:27
  TRACK 18 AUDIO
    TITLE "0:"
    INDEX 01 00:23:30
  TRACK 19 AUDIO
    TITLE "3:cjc044_1798"
    INDEX 01 00:24:18
  TRACK 20 AUDIO
    TITLE "0:"
    INDEX 01 00:25:27
  TRACK 21 AUDIO
    TITLE "4:cjc044_1799"
    INDEX 01 00:26:13
  TRACK 22 AUDIO
    TITLE "0:"
    INDEX 01 00:27:16
  TRACK 23 AUDIO
    TITLE "5:cjc044_1800"
    INDEX 01 00:27:67
  TRACK 24 AUDIO
    TITLE "0:"
    INDEX 01 00:31:27
  TRACK 25 AUDIO
    TITLE "2:cjc044_1801"
    INDEX 01 00:33:17
  TRACK 26 AUDIO
    TITLE "0:"
    INDEX 01 00:34:26
  TRACK 27 AUDIO
    TITLE "3:cjc044_1802"
    INDEX 01 00:35:14
  TRACK 28 AUDIO
    TITLE "0:"
    INDEX 01 00:36:31
  TRACK 29 AUDIO
    TITLE "4:cjc044_1803"
    INDEX 01 00:37:14
  TRACK 30 AUDIO
    TITLE "0:"
    INDEX 01 00:38:30
  TRACK 31 AUDIO
    TITLE "5:cjc044_1804"
    INDEX 01 00:39:03
  TRACK 32 AUDIO
    TITLE "0:"
    INDEX 01 00:42:31
  TRACK 33 AUDIO
    TITLE "2:cjc044_1805"
    INDEX 01 00:44:14
  TRACK 34 AUDIO
    TITLE "0:"
    INDEX 01 00:45:41
  TRACK 35 AUDIO
    TITLE "3:cjc044_1806"
    INDEX 01 00:46:11
  TRACK 36 AUDIO
    TITLE "0:"
    INDEX 01 00:47:23
  TRACK 37 AUDIO
    TITLE "4:cjc044_1807"
    INDEX 01 00:48:02
  TRACK 38 AUDIO
    TITLE "0:"
    INDEX 01 00:49:29
  TRACK 39 AUDIO
    TITLE "5:cjc044_1808"
    INDEX 01 00:50:03
  TRACK 40 AUDIO
    TITLE "0:"
    INDEX 01 00:52:06
  TRACK 41 AUDIO
    TITLE "2:cjc044_1809"
    INDEX 01 00:53:64
  TRACK 42 AUDIO
    TITLE "0:"
    INDEX 01 00:55:06
  TRACK 43 AUDIO
    TITLE "3:cjc044_1810"
    INDEX 01 00:55:69
  TRACK 44 AUDIO
    TITLE "0:"
    INDEX 01 00:57:01
  TRACK 45 AUDIO
    TITLE "4:cjc044_1811"
    INDEX 01 00:57:64
  TRACK 46 AUDIO
    TITLE "0:"
    INDEX 01 00:59:08
  TRACK 47 AUDIO
    TITLE "5:cjc044_1812"
    INDEX 01 00:59:55
  TRACK 48 AUDIO
    TITLE "0:"
    INDEX 01 01:02:71
  TRACK 49 AUDIO
    TITLE "2:cjc044_1813"
    INDEX 01 01:04:58
  TRACK 50 AUDIO
    TITLE "0:"
    INDEX 01 01:06:02
  TRACK 51 AUDIO
    TITLE "3:cjc044_1814"
    INDEX 01 01:06:63
  TRACK 52 AUDIO
    TITLE "0:"
    INDEX 01 01:07:63
  TRACK 53 AUDIO
    TITLE "4:cjc044_1815"
    INDEX 01 01:08:46
  TRACK 54 AUDIO
    TITLE "0:"
    INDEX 01 01:09:69
  TRACK 55 AUDIO
    TITLE "5:cjc044_1816"
    INDEX 01 01:10:43
  TRACK 56 AUDIO
    TITLE "0:"
    INDEX 01 01:13:18
  TRACK 57 AUDIO
    TITLE "2:cjc044_1817"
    INDEX 01 01:15:07
  TRACK 58 AUDIO
    TITLE "0:"
    INDEX 01 01:16:16
  TRACK 59 AUDIO
    TITLE "3:cjc044_1818"
    INDEX 01 01:17:06
  TRACK 60 AUDIO
    TITLE "0:"
    INDEX 01 01:18:39
  TRACK 61 AUDIO
    TITLE "4:cjc044_1819"
    INDEX 01 01:19:28
  TRACK 62 AUDIO
    TITLE "0:"
    INDEX 01 01:20:38
  TRACK 63 AUDIO
    TITLE "5:cjc044_1820"
    INDEX 01 01:21:04
  TRACK 64 AUDIO
    TITLE "0:"
    INDEX 01 01:24:00
